<svg width="20px" height="20px" viewBox="0 0 48 48" version="1.1" xmlns="http://www.w3.org/2000/svg" xmlns:xlink="http://www.w3.org/1999/xlink">
    <g id="Symbols" stroke="none" stroke-width="1" fill="none" fill-rule="evenodd">
        <g id="1.16" fill-rule="nonzero" fill="#000000">
            <g id="Combined-Shape">
                <path d="M4,36.6191712 L4,38.9914698 C4,40.1007504 3.11227036,41 2,41 C0.8954305,41 -2.3883926e-15,40.0980496 -2.04960024e-15,38.9914698 L3.94470118e-16,31.0085302 C3.94905597e-16,31.0071078 1.45958534e-06,31.0056858 4.37735785e-06,31.0042641 C1.47067839e-06,31.0028445 0,31.0014224 0,31 C0,30.4491344 0.22433028,29.9502851 0.586495929,29.5885791 C0.946425332,29.2236628 1.44528861,29 2,29 C2.00142238,29 2.00284442,29.0000015 2.00426611,29.0000045 C2.00568581,29.0000015 2.00710783,29 2.0085302,29 L9.9914698,29 C11.1007504,29 12,29.8877296 12,31 C12,32.1045695 11.0980496,33 9.9914698,33 L6.46658879,33 C9.80121095,38.9661535 16.1795278,43 23.5,43 C34.2695526,43 43,34.2695526 43,23.5 C43,23.3328337 42.9978965,23.1661587 42.9937146,23 L46.9947863,23 C46.9982564,23.166248 47,23.3329204 47,23.5 C47,36.4786916 36.4786916,47 23.5,47 C15.3797121,47 8.22137739,42.881389 4,36.6191712 Z M43,10.3808288 L43,8.0085302 C43,6.8992496 43.8877296,6 45,6 C46.1045695,6 47,6.90195036 47,8.0085302 L47,15.9914698 C47,15.9928922 46.9999985,15.9943142 46.9999956,15.9957359 C46.9999985,15.9971555 47,15.9985776 47,16 C47,16.5508656 46.7756697,17.0497149 46.4135041,17.4114209 C46.0535747,17.7763372 45.5547114,18 45,18 C44.9985776,18 44.9971556,17.9999985 44.9957339,17.9999955 C44.9943142,17.9999985 44.9928922,18 44.9914698,18 L37.0085302,18 C35.8992496,18 35,17.1122704 35,16 C35,14.8954305 35.9019504,14 37.0085302,14 L40.5334112,14 C37.1987891,8.03384646 30.8204722,4 23.5,4 C12.8976137,4 4.27152142,12.4615207 4.00628542,23 L0.00521369459,23 C0.27129688,10.2521624 10.688388,0 23.5,0 C31.6202879,0 38.7786226,4.11861099 43,10.3808288 Z"></path>
            </g>
        </g>
    </g>
</svg>
